<?xml version="1.0" encoding="iso-8859-1"?>
<!-- Generator: Adobe Illustrator 16.0.0, SVG Export Plug-In . SVG Version: 6.00 Build 0)  -->
<!DOCTYPE svg PUBLIC "-//W3C//DTD SVG 1.1//EN" "http://www.w3.org/Graphics/SVG/1.1/DTD/svg11.dtd">
<svg version="1.1" id="Capa_1" xmlns="http://www.w3.org/2000/svg" xmlns:xlink="http://www.w3.org/1999/xlink" x="0px" y="0px"
	 width="495.526px" height="495.525px" viewBox="0 0 495.526 495.525" style="enable-background:new 0 0 495.526 495.525;"
	 xml:space="preserve">
<g>
	<g>
		<path d="M425.475,221.694h-78.287H220.093H75.674L7.381,153.396c-1.47-1.464-3.769-1.688-5.486-0.518
			c-1.722,1.166-2.364,3.385-1.536,5.289l34.755,80.184c-1.107,1.765-2.06,3.649-2.845,5.622l-0.022,4.979
			c-5.655,0.267-10.175,4.895-10.175,10.624c0,5.746,4.55,10.397,10.235,10.639c0.752,1.882,1.631,3.698,2.678,5.422l39.246,16.859
			h172.862l-69.422,33.418c-2.404,5.482-0.56,11.924,4.386,15.3c2.128,1.466,4.593,2.167,7.025,2.183l184.265-50.905h52.127
			c19.555,0,70.051-15.847,70.051-35.41C495.531,237.532,445.03,221.694,425.475,221.694z"/>
		<path d="M204.454,215.626h85.024l-87.526-24.174c-2.439,0-4.893,0.717-7.03,2.173c-4.947,3.385-6.791,9.822-4.386,15.303
			L204.454,215.626z"/>
	</g>
</g>
<g>
</g>
<g>
</g>
<g>
</g>
<g>
</g>
<g>
</g>
<g>
</g>
<g>
</g>
<g>
</g>
<g>
</g>
<g>
</g>
<g>
</g>
<g>
</g>
<g>
</g>
<g>
</g>
<g>
</g>
</svg>
