<?xml version="1.0" encoding="iso-8859-1"?>
<!-- Generator: Adobe Illustrator 19.0.0, SVG Export Plug-In . SVG Version: 6.00 Build 0)  -->
<svg version="1.1" id="Capa_1" xmlns="http://www.w3.org/2000/svg" xmlns:xlink="http://www.w3.org/1999/xlink" x="0px" y="0px"
	 viewBox="0 0 512 512" style="enable-background:new 0 0 512 512;" xml:space="preserve">
<g>
	<path style="fill:#303C42;" d="M501.333,245.333H447.46c-5.388-97.341-83.443-175.405-180.793-180.793V10.667
		C266.667,4.771,261.896,0,256,0c-5.896,0-10.667,4.771-10.667,10.667V64.54c-97.35,5.388-175.405,83.452-180.793,180.793H10.667
		C4.771,245.333,0,250.104,0,256c0,5.896,4.771,10.667,10.667,10.667H64.54c5.388,97.341,83.443,175.405,180.793,180.793v53.874
		c0,5.896,4.771,10.667,10.667,10.667c5.896,0,10.667-4.771,10.667-10.667V447.46c97.35-5.388,175.405-83.452,180.793-180.793
		h53.874c5.896,0,10.667-4.771,10.667-10.667C512,250.104,507.229,245.333,501.333,245.333z M256,426.667
		c-94.104,0-170.667-76.563-170.667-170.667S161.896,85.333,256,85.333S426.667,161.896,426.667,256S350.104,426.667,256,426.667z"
		/>
	<path style="fill:#303C42;" d="M256,170.667c-47.063,0-85.333,38.281-85.333,85.333s38.271,85.333,85.333,85.333
		s85.333-38.281,85.333-85.333S303.063,170.667,256,170.667z"/>
</g>
<linearGradient id="SVGID_1_" gradientUnits="userSpaceOnUse" x1="-44.6025" y1="639.1005" x2="-24.8038" y2="629.8682" gradientTransform="matrix(21.3333 0 0 -21.3333 996.3334 13791.667)">
	<stop  offset="0" style="stop-color:#FFFFFF;stop-opacity:0.2"/>
	<stop  offset="1" style="stop-color:#FFFFFF;stop-opacity:0"/>
</linearGradient>
<path style="fill:url(#SVGID_1_);" d="M501.333,245.333H447.46c-5.388-97.341-83.443-175.405-180.793-180.793V10.667
	C266.667,4.771,261.896,0,256,0c-5.896,0-10.667,4.771-10.667,10.667V64.54c-97.35,5.388-175.405,83.452-180.793,180.793H10.667
	C4.771,245.333,0,250.104,0,256c0,5.896,4.771,10.667,10.667,10.667H64.54c5.388,97.341,83.443,175.405,180.793,180.793v53.874
	c0,5.896,4.771,10.667,10.667,10.667c5.896,0,10.667-4.771,10.667-10.667V447.46c97.35-5.388,175.405-83.452,180.793-180.793h53.874
	c5.896,0,10.667-4.771,10.667-10.667C512,250.104,507.229,245.333,501.333,245.333z M256,426.667
	c-94.104,0-170.667-76.563-170.667-170.667S161.896,85.333,256,85.333S426.667,161.896,426.667,256S350.104,426.667,256,426.667z
	 M256,170.667c-47.063,0-85.333,38.281-85.333,85.333s38.271,85.333,85.333,85.333s85.333-38.281,85.333-85.333
	S303.063,170.667,256,170.667z"/>
<g>
</g>
<g>
</g>
<g>
</g>
<g>
</g>
<g>
</g>
<g>
</g>
<g>
</g>
<g>
</g>
<g>
</g>
<g>
</g>
<g>
</g>
<g>
</g>
<g>
</g>
<g>
</g>
<g>
</g>
</svg>
