<?xml version="1.0" encoding="iso-8859-1"?>
<!-- Generator: Adobe Illustrator 19.0.0, SVG Export Plug-In . SVG Version: 6.00 Build 0)  -->
<svg version="1.1" id="Capa_1" xmlns="http://www.w3.org/2000/svg" xmlns:xlink="http://www.w3.org/1999/xlink" x="0px" y="0px"
	 viewBox="0 0 512 512" style="enable-background:new 0 0 512 512;" xml:space="preserve">
<polygon style="fill:#00D4BE;" points="404.882,294.806 437.419,256 177.001,236 150.001,256 67.501,338.5 "/>
<polygon style="fill:#00B3A0;" points="404.882,274.806 404.882,294.806 504.501,256 437.419,246 437.419,256 "/>
<polygon style="fill:#008F80;" points="404.882,217.193 67.501,173.5 150.001,256 437.419,256 "/>
<polygon style="fill:#00786B;" points="437.419,256 504.501,256 404.882,217.193 404.882,237.193 "/>
<polygon style="fill:#00D4BE;" points="7.501,504.5 504.501,256 404.882,274.806 334.882,294.806 "/>
<polygon style="fill:#06F5DD;" points="67.501,338.5 7.501,504.5 404.882,274.806 "/>
<polygon style="fill:#00D4BE;" points="504.501,256 7.501,7.5 324.882,217.193 404.882,237.193 "/>
<polygon style="fill:#06F5DD;" points="7.501,7.5 67.501,173.5 404.882,237.193 "/>
<path d="M511.931,257.001c0.009-0.069,0.02-0.137,0.027-0.206c0.003-0.031,0.005-0.062,0.008-0.093
	c0.009-0.098,0.012-0.196,0.018-0.294c0.007-0.123,0.015-0.245,0.016-0.368c0-0.204-0.009-0.326-0.016-0.448
	c-0.005-0.098-0.008-0.196-0.018-0.294c-0.003-0.031-0.004-0.062-0.008-0.093c-0.007-0.069-0.018-0.137-0.027-0.206
	c-0.007-0.051-0.017-0.101-0.025-0.152c-0.003-0.019-0.006-0.037-0.009-0.056c-0.01-0.061-0.013-0.121-0.025-0.182
	c-0.018-0.081-0.023-0.115-0.03-0.149c-0.029-0.135-0.067-0.267-0.103-0.4c-0.018-0.07-0.025-0.111-0.036-0.15
	c-0.008-0.027-0.015-0.054-0.023-0.081c-0.009-0.03-0.017-0.061-0.027-0.091c-0.031-0.1-0.072-0.196-0.107-0.294
	c-0.007-0.02-0.015-0.041-0.022-0.061c-0.032-0.088-0.061-0.178-0.096-0.264c-0.01-0.024-0.02-0.048-0.03-0.072
	c-0.009-0.021-0.02-0.042-0.03-0.063c-0.013-0.029-0.029-0.057-0.042-0.086c-0.007-0.016-0.016-0.031-0.023-0.047
	c-0.011-0.025-0.024-0.049-0.035-0.073c-0.053-0.111-0.102-0.224-0.16-0.332c-0.009-0.017-0.019-0.033-0.028-0.05
	c-0.032-0.058-0.07-0.113-0.103-0.17c-0.015-0.026-0.031-0.051-0.046-0.077c-0.029-0.048-0.056-0.096-0.086-0.144
	c-0.04-0.063-0.076-0.128-0.118-0.19c-0.056-0.081-0.095-0.128-0.131-0.177c-0.098-0.137-0.196-0.275-0.303-0.404
	c-0.069-0.083-0.128-0.141-0.183-0.203c-0.099-0.111-0.195-0.224-0.3-0.328c-0.066-0.065-0.121-0.112-0.174-0.162
	c-0.048-0.045-0.098-0.089-0.147-0.133c-0.069-0.062-0.135-0.127-0.206-0.186c-0.13-0.108-0.25-0.192-0.368-0.278
	c-0.04-0.029-0.077-0.061-0.118-0.089c-0.015-0.01-0.028-0.022-0.042-0.032c-0.014-0.01-0.027-0.02-0.042-0.029
	c-0.147-0.099-0.272-0.17-0.396-0.243c-0.073-0.043-0.142-0.091-0.216-0.131c-0.015-0.008-0.031-0.017-0.046-0.025
	c-0.051-0.028-0.105-0.051-0.157-0.078C507.855,249.292,10.855,0.792,10.855,0.792C8.111-0.58,4.809-0.142,2.517,1.896
	c-2.292,2.039-3.112,5.268-2.07,8.154l60,166c0.019,0.053,0.045,0.102,0.065,0.154c0.061,0.158,0.127,0.313,0.198,0.466
	c0.041,0.089,0.084,0.176,0.129,0.263c0.075,0.145,0.154,0.285,0.238,0.424c0.052,0.086,0.102,0.172,0.157,0.256
	c0.091,0.139,0.189,0.272,0.29,0.405c0.056,0.074,0.109,0.15,0.168,0.223c0.133,0.164,0.276,0.32,0.423,0.472
	c0.029,0.03,0.053,0.063,0.083,0.092C62.231,178.837,139.394,256,139.394,256l-77.163,77.162c-0.063,0.063-0.088,0.096-0.116,0.126
	c-0.147,0.152-0.289,0.308-0.423,0.472c-0.059,0.072-0.112,0.148-0.168,0.223c-0.1,0.133-0.198,0.266-0.29,0.405
	c-0.055,0.084-0.106,0.17-0.157,0.256c-0.083,0.139-0.163,0.28-0.238,0.424c-0.045,0.087-0.087,0.174-0.129,0.263
	c-0.071,0.153-0.137,0.308-0.198,0.466c-0.02,0.052-0.046,0.101-0.065,0.154l-60,166c-1.042,2.886-0.223,6.114,2.069,8.153
	C3.92,511.352,5.702,512,7.503,512c1.14,0,2.288-0.26,3.353-0.792l497-248.5c0.094-0.052,0.148-0.075,0.199-0.103
	c0.035-0.019,0.068-0.04,0.102-0.059c0.084-0.047,0.166-0.099,0.249-0.15c0.093-0.057,0.189-0.11,0.279-0.171
	c0.016-0.011,0.031-0.023,0.047-0.034c0.12-0.084,0.185-0.137,0.251-0.187c0.094-0.071,0.192-0.138,0.282-0.212
	c0.03-0.025,0.057-0.052,0.086-0.077c0.049-0.041,0.095-0.085,0.143-0.128c0.043-0.039,0.087-0.076,0.129-0.115
	c0.043-0.04,0.088-0.078,0.13-0.119c0.014-0.014,0.028-0.028,0.042-0.042c0.04-0.04,0.076-0.084,0.115-0.125
	c0.109-0.113,0.216-0.227,0.317-0.347c0.016-0.018,0.032-0.036,0.048-0.055c0.037-0.045,0.07-0.093,0.105-0.138
	c0.094-0.118,0.185-0.238,0.272-0.362c0.016-0.023,0.034-0.046,0.051-0.069c0.032-0.047,0.061-0.098,0.092-0.146
	c0.022-0.035,0.047-0.068,0.069-0.103c0.069-0.11,0.113-0.189,0.157-0.268c0.018-0.032,0.039-0.063,0.057-0.095
	c0.027-0.049,0.05-0.101,0.076-0.15c0.061-0.117,0.118-0.236,0.173-0.357c0.012-0.027,0.027-0.053,0.039-0.081
	c0.01-0.021,0.02-0.042,0.03-0.064c0.021-0.048,0.038-0.098,0.058-0.147c0.044-0.109,0.083-0.221,0.123-0.333
	c0.025-0.07,0.053-0.139,0.076-0.21c0.014-0.043,0.024-0.087,0.037-0.13c0.006-0.022,0.015-0.042,0.021-0.064
	c0.021-0.075,0.036-0.153,0.055-0.229c0.025-0.099,0.054-0.198,0.075-0.298c0.007-0.033,0.012-0.066,0.018-0.099
	c0.003-0.017,0.009-0.033,0.012-0.05c0.011-0.061,0.015-0.121,0.025-0.182c0.003-0.019,0.006-0.037,0.009-0.056
	C511.913,257.102,511.924,257.052,511.931,257.001z M453.031,238.65L73.099,166.924L20.934,22.601L453.031,238.65z M153.108,263.5
	h39.319c4.143,0,7.5-3.357,7.5-7.5s-3.357-7.5-7.5-7.5h-39.319l-63.123-63.123L424.343,248.5H222.428c-4.143,0-7.5,3.357-7.5,7.5
	s3.357,7.5,7.5,7.5h201.915L89.985,326.622L153.108,263.5z M73.099,345.076l379.932-71.726L20.934,489.398L73.099,345.076z"/>
<circle cx="67.5" cy="256" r="7.5"/>
<circle cx="37.501" cy="256" r="7.5"/>
<circle cx="7.501" cy="256" r="7.5"/>
<g>
</g>
<g>
</g>
<g>
</g>
<g>
</g>
<g>
</g>
<g>
</g>
<g>
</g>
<g>
</g>
<g>
</g>
<g>
</g>
<g>
</g>
<g>
</g>
<g>
</g>
<g>
</g>
<g>
</g>
</svg>
